<?xml version="1.0" encoding="utf-8"?>
<!-- Generator: Adobe Illustrator 16.0.0, SVG Export Plug-In . SVG Version: 6.00 Build 0)  -->
<!DOCTYPE svg PUBLIC "-//W3C//DTD SVG 1.1//EN" "http://www.w3.org/Graphics/SVG/1.1/DTD/svg11.dtd">
<svg version="1.1" id="Layer_1" xmlns="http://www.w3.org/2000/svg" xmlns:xlink="http://www.w3.org/1999/xlink" x="0px" y="0px"
	 width="186.46px" height="141.489px" viewBox="0 0 186.46 141.489" enable-background="new 0 0 186.46 141.489"
	 xml:space="preserve">
<path fill="none" stroke="#FBB040" stroke-width="7" stroke-miterlimit="10" d="M84.44,118.074
	c-1.421,2.493-4.661,3.361-7.196,1.898c-2.492-1.419-3.359-4.662-1.931-7.197c1.455-2.49,4.696-3.359,7.23-1.896
	C85.034,112.298,85.903,115.541,84.44,118.074z"/>
<g>
	<path fill="none" stroke="#FBB040" stroke-width="7" stroke-miterlimit="10" d="M105.055,121.442c0,2.926-2.372,5.299-5.3,5.299
		c-2.883,0-5.255-2.373-5.255-5.299c0-2.884,2.373-5.257,5.255-5.257C102.683,116.185,105.055,118.558,105.055,121.442z"/>
	<path fill="none" stroke="#FBB040" stroke-width="7" stroke-miterlimit="10" d="M99.856,116.035l-0.202-22.111L99.856,116.035z"/>
	<path fill="none" stroke="#FBB040" stroke-width="7" stroke-miterlimit="10" d="M82.707,110.799l10.389-18.462L82.707,110.799z"/>
	<path fill="none" stroke="#FBB040" stroke-width="7" stroke-miterlimit="10" d="M114.309,118.33
		c1.419,2.492,4.66,3.361,7.195,1.896c2.491-1.419,3.36-4.66,1.897-7.195c-1.42-2.493-4.662-3.36-7.197-1.896
		C113.713,112.554,112.845,115.794,114.309,118.33z"/>
	<path fill="none" stroke="#FBB040" stroke-width="7" stroke-miterlimit="10" d="M116.041,111.053l-10.34-18.423L116.041,111.053z"
		/>
	<g>
		<path fill="none" stroke="#FBB040" stroke-width="7" stroke-miterlimit="10" d="M68.157,104.873
			c-1.933,1.398-4.667,0.93-6.065-1.042c-1.399-1.934-0.931-4.67,1.044-6.068c1.977-1.398,4.667-0.93,6.066,1.047
			C70.601,100.784,70.133,103.504,68.157,104.873z"/>
		<path fill="none" stroke="#FBB040" stroke-width="7" stroke-miterlimit="10" d="M69.132,98.862l17.534-12.396L69.132,98.862z"/>
	</g>
	<g>
		<path fill="none" stroke="#FBB040" stroke-width="7" stroke-miterlimit="10" d="M130.636,105.134
			c1.932,1.397,4.667,0.93,6.065-1.044c1.399-1.933,0.931-4.669-1.044-6.066c-1.976-1.398-4.688-0.932-6.066,1.045
			C128.192,101.043,128.66,103.744,130.636,105.134z"/>
		<path fill="none" stroke="#FBB040" stroke-width="7" stroke-miterlimit="10" d="M129.661,99.124l-17.534-12.396L129.661,99.124z"
			/>
	</g>
</g>
<path fill="none" stroke="#FBB040" stroke-width="7" stroke-miterlimit="10" d="M115.29,76.496c0,8.951-7.234,16.183-16.161,16.183
	h1.277c-8.948,0-16.183-7.232-16.183-16.183"/>
<path fill="none" stroke="#FBB040" stroke-width="7" stroke-miterlimit="10" d="M123.922,82.767
	c0,13.979-11.233,25.313-25.135,25.313h1.979c-13.9,0-25.177-11.334-25.177-25.313"/>
<g>
	<path fill="none" stroke="#FBB040" stroke-width="7" stroke-miterlimit="10" d="M18.086,134.25
		c17.154,0.924,31.828-13.257,32.826-31.643l-0.01,0.273c0-10.111,8.172-18.284,18.241-18.284l-0.505-0.009
		c10.892,0,19.698-8.805,19.698-19.697"/>
	<path fill="none" stroke="#FBB040" stroke-width="7" stroke-miterlimit="10" d="M181.466,134.25
		c-17.154,0.924-31.827-13.257-32.824-31.643l0.012,0.273c0-10.111-8.173-18.284-18.241-18.284l0.488-0.009
		c-10.875,0-19.681-8.805-19.681-19.697"/>
</g>
<g>
	<polygon fill="none" stroke="#FBB040" stroke-width="7" stroke-miterlimit="10" points="51.792,54.194 49.588,61.761 
		41.957,59.907 38.323,53.798 34.35,46.658 41.836,48.646 43.944,41.041 47.67,47.021 	"/>
	<path fill="none" stroke="#FBB040" stroke-width="7" stroke-miterlimit="10" d="M49.593,61.823L63.44,85.828L49.593,61.823z"/>
	<g>
		<polygon fill="none" stroke="#FBB040" stroke-width="7" stroke-miterlimit="10" points="25.261,43.104 23.28,50.746 15.588,49.16 
			11.75,43.181 7.521,36.186 15.074,37.953 16.957,30.278 20.846,36.081 		"/>
		<path fill="none" stroke="#FBB040" stroke-width="7" stroke-miterlimit="10" d="M23.286,50.808l28.826,46.154L23.286,50.808z"/>
	</g>
</g>
<path fill="none" stroke="#FBB040" stroke-width="7" stroke-miterlimit="10" d="M129.31,33.136c12.373,0,22.87-21.945,22.87-21.945
	c-12.032,0-21.717,9.726-21.717,21.715"/>
<g>
	<line fill="none" stroke="#FBB040" stroke-width="7" stroke-miterlimit="10" x1="75.66" y1="33.974" x2="123.852" y2="33.974"/>
	<path fill="none" stroke="#FBB040" stroke-width="7" stroke-miterlimit="10" d="M115.084,35.587l-0.032,16.983
		c0,10.273-6.857,18.578-15.313,18.578c-8.453,0-15.291-8.305-15.291-18.578l0.034-17.083"/>
</g>
<polyline fill="none" stroke="#FBB040" stroke-width="7" stroke-miterlimit="10" points="81.918,75.951 58.531,73.428 70.424,29.98 
	"/>
<polyline fill="none" stroke="#FBB040" stroke-width="7" stroke-miterlimit="10" points="117.855,76.742 139.734,74.23 
	128.674,30.409 "/>
<path fill="none" stroke="#FBB040" stroke-width="7" stroke-miterlimit="10" d="M125.763,19.1c0-8.472-11.717-15.319-26.261-15.319
	c-14.5,0-26.216,6.847-26.216,15.319"/>
<line fill="none" stroke="#FBB040" stroke-width="7" stroke-miterlimit="10" x1="69.037" y1="35.16" x2="74.53" y2="14.42"/>
<line fill="none" stroke="#FBB040" stroke-width="7" stroke-miterlimit="10" x1="129.983" y1="35.16" x2="124.492" y2="14.42"/>
<line fill="none" stroke="#FBB040" stroke-width="7" stroke-miterlimit="10" x1="80.409" y1="75.795" x2="84.538" y2="76.198"/>
<line fill="none" stroke="#FBB040" stroke-width="7" stroke-miterlimit="10" x1="120.232" y1="76.406" x2="116.06" y2="76.811"/>
<g>
</g>
<g>
</g>
<g>
</g>
<g>
</g>
<g>
</g>
<g>
</g>
</svg>
