<?xml version="1.0" encoding="utf-8"?>
<!DOCTYPE svg PUBLIC "-//W3C//DTD SVG 1.1//EN" "http://www.w3.org/Graphics/SVG/1.1/DTD/svg11.dtd">
<svg version="1.1" id="Layer_1" xmlns="http://www.w3.org/2000/svg" xmlns:xlink="http://www.w3.org/1999/xlink" x="0px" y="0px"
	 width="564.441px" height="141.489px" viewBox="0 0 564.441 141.489" enable-background="new 0 0 564.441 141.489"
	 xml:space="preserve">
<path fill="none" stroke="#EC2127" stroke-width="3.6339" stroke-miterlimit="10" d="M82.44,118.074
	c-1.421,2.493-4.661,3.361-7.196,1.898c-2.492-1.419-3.359-4.662-1.931-7.197c1.455-2.49,4.696-3.359,7.23-1.896
	C83.034,112.298,83.903,115.541,82.44,118.074z"/>
<g>
	<path fill="none" stroke="#EC2127" stroke-width="3.6339" stroke-miterlimit="10" d="M103.055,121.442
		c0,2.926-2.372,5.299-5.3,5.299c-2.883,0-5.255-2.373-5.255-5.299c0-2.884,2.373-5.257,5.255-5.257
		C100.683,116.185,103.055,118.558,103.055,121.442z"/>
	<path fill="none" stroke="#EC2127" stroke-width="3.6339" stroke-miterlimit="10" d="M97.856,116.035l-0.202-22.111L97.856,116.035
		z"/>
	<path fill="none" stroke="#EC2127" stroke-width="3.6339" stroke-miterlimit="10" d="M80.707,110.799l10.389-18.462L80.707,110.799
		z"/>
	<path fill="none" stroke="#EC2127" stroke-width="3.6339" stroke-miterlimit="10" d="M112.309,118.33
		c1.419,2.492,4.66,3.361,7.195,1.896c2.491-1.419,3.36-4.66,1.897-7.195c-1.42-2.493-4.662-3.36-7.197-1.896
		C111.713,112.554,110.845,115.794,112.309,118.33z"/>
	<path fill="none" stroke="#EC2127" stroke-width="3.6339" stroke-miterlimit="10" d="M114.041,111.053l-10.34-18.423
		L114.041,111.053z"/>
	<g>
		<path fill="none" stroke="#EC2127" stroke-width="3.6339" stroke-miterlimit="10" d="M66.157,104.873
			c-1.933,1.398-4.667,0.93-6.065-1.042c-1.399-1.934-0.931-4.67,1.044-6.068c1.977-1.398,4.667-0.93,6.066,1.047
			C68.601,100.784,68.133,103.504,66.157,104.873z"/>
		<path fill="none" stroke="#EC2127" stroke-width="3.6339" stroke-miterlimit="10" d="M67.132,98.862l17.534-12.396L67.132,98.862z
			"/>
	</g>
	<g>
		<path fill="none" stroke="#EC2127" stroke-width="3.6339" stroke-miterlimit="10" d="M128.636,105.134
			c1.932,1.397,4.667,0.93,6.065-1.044c1.399-1.933,0.931-4.669-1.044-6.066c-1.976-1.398-4.688-0.932-6.066,1.045
			C126.192,101.043,126.66,103.744,128.636,105.134z"/>
		<path fill="none" stroke="#EC2127" stroke-width="3.6339" stroke-miterlimit="10" d="M127.661,99.124l-17.534-12.396
			L127.661,99.124z"/>
	</g>
</g>
<path fill="none" stroke="#EC2127" stroke-width="3.6339" stroke-miterlimit="10" d="M113.29,76.496
	c0,8.951-7.234,16.183-16.161,16.183h1.277c-8.948,0-16.183-7.232-16.183-16.183"/>
<path fill="none" stroke="#EC2127" stroke-width="3.6339" stroke-miterlimit="10" d="M121.922,82.767
	c0,13.979-11.233,25.313-25.135,25.313h1.979c-13.9,0-25.177-11.334-25.177-25.313"/>
<g>
	<path fill="none" stroke="#EC2127" stroke-width="3.8358" stroke-miterlimit="10" d="M16.086,134.25
		c17.154,0.924,31.828-13.257,32.826-31.643l-0.01,0.273c0-10.111,8.172-18.284,18.241-18.284l-0.505-0.009
		c10.892,0,19.698-8.805,19.698-19.697"/>
	<path fill="none" stroke="#EC2127" stroke-width="3.8358" stroke-miterlimit="10" d="M179.466,134.25
		c-17.154,0.924-31.827-13.257-32.824-31.643l0.012,0.273c0-10.111-8.173-18.284-18.241-18.284l0.488-0.009
		c-10.875,0-19.681-8.805-19.681-19.697"/>
</g>
<g>
	<polygon fill="none" stroke="#EC2127" stroke-width="3.6339" stroke-miterlimit="10" points="49.792,54.194 47.588,61.761 
		39.957,59.907 36.323,53.798 32.35,46.658 39.836,48.646 41.944,41.041 45.67,47.021 	"/>
	<path fill="none" stroke="#EC2127" stroke-width="3.6339" stroke-miterlimit="10" d="M47.593,61.823L61.44,85.828L47.593,61.823z"
		/>
	<g>
		<polygon fill="none" stroke="#EC2127" stroke-width="3.6339" stroke-miterlimit="10" points="23.261,43.104 21.28,50.746 
			13.588,49.16 9.75,43.181 5.521,36.186 13.074,37.953 14.957,30.278 18.846,36.081 		"/>
		<path fill="none" stroke="#EC2127" stroke-width="3.6339" stroke-miterlimit="10" d="M21.286,50.808l28.826,46.154L21.286,50.808z
			"/>
	</g>
</g>
<path fill="none" stroke="#EC2127" stroke-width="3.6339" stroke-miterlimit="10" d="M127.31,33.136
	c12.373,0,22.87-21.945,22.87-21.945c-12.032,0-21.717,9.726-21.717,21.715"/>
<g>
	
		<line fill="none" stroke="#EC2127" stroke-width="3.6881" stroke-miterlimit="10" x1="73.66" y1="33.974" x2="121.852" y2="33.974"/>
	<path fill="none" stroke="#EC2127" stroke-width="3.6931" stroke-miterlimit="10" d="M113.084,35.587l-0.032,16.983
		c0,10.273-6.857,18.578-15.313,18.578c-8.453,0-15.291-8.305-15.291-18.578l0.034-17.083"/>
</g>
<polyline fill="none" stroke="#EC2127" stroke-width="4.0377" stroke-miterlimit="10" points="79.918,75.951 56.531,73.428 
	68.424,29.98 "/>
<polyline fill="none" stroke="#EC2127" stroke-width="4.0377" stroke-miterlimit="10" points="115.855,76.742 137.734,74.23 
	126.674,30.409 "/>
<path fill="none" stroke="#EC2127" stroke-width="4.0392" stroke-miterlimit="10" d="M123.763,19.1
	c0-8.472-11.717-15.319-26.261-15.319c-14.5,0-26.216,6.847-26.216,15.319"/>
<line fill="none" stroke="#EC2127" stroke-width="3.9631" stroke-miterlimit="10" x1="67.037" y1="35.16" x2="72.53" y2="14.42"/>
<line fill="none" stroke="#EC2127" stroke-width="3.9631" stroke-miterlimit="10" x1="127.983" y1="35.16" x2="122.492" y2="14.42"/>
<line fill="none" stroke="#EC2127" stroke-width="4.0377" stroke-miterlimit="10" x1="78.409" y1="75.795" x2="82.538" y2="76.198"/>
<line fill="none" stroke="#EC2127" stroke-width="4.0377" stroke-miterlimit="10" x1="118.232" y1="76.406" x2="114.06" y2="76.811"/>
<g>
	<rect x="172.036" y="50.063" fill="none" width="390.399" height="67.246"/>
	<path fill="#FFCC01" stroke="#FFCC01" stroke-width="0.9887" stroke-miterlimit="10" d="M213.175,98.778l-8.328,2.129
		l-3.193-10.019H185.06l-3.444,10.144l-8.328-2.317l19.536-51.846h1.878L213.175,98.778z M199.211,83.125l-5.573-17.721
		l-5.949,17.721H199.211z"/>
	<path fill="#FFCC01" stroke="#FFCC01" stroke-width="0.9887" stroke-miterlimit="10" d="M271.157,99.029l-8.579,1.753
		l-6.762-29.805l-9.33,29.179h-2.254l-9.33-29.179l-6.825,29.805l-8.578-1.753l13.462-52.222h2.191l10.207,31.058l10.207-31.058
		h2.129L271.157,99.029z"/>
	<path fill="#FFCC01" stroke="#FFCC01" stroke-width="0.9887" stroke-miterlimit="10" d="M317.366,98.778l-8.328,2.129
		l-3.193-10.019h-16.594l-3.444,10.144l-8.328-2.317l19.536-51.846h1.878L317.366,98.778z M303.403,83.125l-5.573-17.721
		l-5.949,17.721H303.403z"/>
	<path fill="#FFCC01" stroke="#FFCC01" stroke-width="0.9887" stroke-miterlimit="10" d="M360.007,47.433l-20.351,44.708
		l19.036-0.063v7.451h-31.434l20.288-44.646h-18.973v-7.451H360.007z"/>
	<path fill="#FFCC01" stroke="#FFCC01" stroke-width="0.9887" stroke-miterlimit="10" d="M414.858,73.356l-23.856,27.426h-1.565
		l-23.919-27.426l23.919-27.238h1.565L414.858,73.356z M404.276,73.419L390.25,56.888l-14.089,16.531l14.089,16.593L404.276,73.419z
		"/>
	<path fill="#FFCC01" stroke="#FFCC01" stroke-width="0.9887" stroke-miterlimit="10" d="M459.439,100.219h-2.191l-22.166-31.058
		V99.53h-8.141V46.744h2.191l22.168,30.87V47.371h8.139V100.219z"/>
	<path fill="#FFCC01" stroke="#FFCC01" stroke-width="0.9887" stroke-miterlimit="10" d="M508.531,95.084l-6.011,5.823
		l-19.411-20.225v18.91h-8.141V47.433h8.141v17.533l18.221-18.848l6.012,5.636l-21.665,20.851L508.531,95.084z"/>
	<path fill="#FFCC01" stroke="#FFCC01" stroke-width="0.9887" stroke-miterlimit="10" d="M559.062,98.778l-8.328,2.129
		l-3.193-10.019h-16.593l-3.444,10.144l-8.328-2.317l19.536-51.846h1.879L559.062,98.778z M545.099,83.125l-5.573-17.721
		l-5.948,17.721H545.099z"/>
</g>
</svg>
